<?xml version="1.0" encoding="UTF-8"?>
<!-- Generator: visioncortex VTracer 0.6.3 -->
<svg version="1.1" xmlns="http://www.w3.org/2000/svg" width="1280" height="1280">
<path d="M0 0 C2.2 -0 4.41 -0.04 6.61 -0.08 C14.06 -0.14 20.26 -0.13 26.54 4.37 C27.74 6.51 27.74 6.51 28.54 8.37 C29.2 8.37 29.86 8.37 30.54 8.37 C33 15.04 32.84 21.51 32.79 28.56 C32.8 30.32 32.8 30.32 32.81 32.12 C32.81 33.25 32.81 34.38 32.81 35.54 C32.8 36.56 32.8 37.59 32.8 38.64 C32.54 41.38 31.95 43.03 30.54 45.37 C29.88 45.37 29.22 45.37 28.54 45.37 C30.06 49.67 30.06 49.67 32.54 53.37 C32.83 57.55 32.77 61.74 32.79 65.93 C32.81 67.1 32.83 68.27 32.85 69.47 C32.89 77.58 32.56 83.9 27.04 90.25 C22.37 94.21 19.37 94.66 13.44 94.6 C12.26 94.6 12.26 94.6 11.05 94.6 C9.38 94.6 7.71 94.59 6.04 94.58 C3.49 94.56 0.93 94.56 -1.63 94.56 C-3.25 94.55 -4.87 94.55 -6.49 94.54 C-7.26 94.54 -8.03 94.54 -8.82 94.54 C-14.23 94.49 -14.23 94.49 -16.46 93.37 C-16.53 81.54 -16.58 69.71 -16.61 57.88 C-16.63 52.39 -16.65 46.89 -16.69 41.4 C-16.72 36.1 -16.74 30.81 -16.74 25.51 C-16.75 23.48 -16.76 21.46 -16.78 19.43 C-16.8 16.61 -16.8 13.78 -16.8 10.95 C-16.81 10.11 -16.82 9.26 -16.83 8.39 C-16.82 6.07 -16.82 6.07 -16.46 2.37 C-11.55 -0.9 -5.75 -0 0 0 Z M2.54 17.37 C2.54 24.63 2.54 31.89 2.54 39.37 C10.57 40.04 10.57 40.04 13.54 38.37 C14.71 35.12 14.74 31.86 14.79 28.43 C14.82 27.41 14.84 26.39 14.87 25.34 C14.47 21.73 14.09 20.01 11.54 17.37 C8.57 17.37 5.6 17.37 2.54 17.37 Z M2.54 56.37 C2.54 63.3 2.54 70.23 2.54 77.37 C5.84 77.37 9.14 77.37 12.54 77.37 C14.2 73.73 14.81 70.87 14.79 66.87 C14.8 65.95 14.8 65.03 14.81 64.09 C14.52 61.19 13.74 59.01 12.54 56.37 C9.24 56.37 5.94 56.37 2.54 56.37 Z " fill="#060A08" transform="translate(218.458740234375,400.62939453125)"/>
<path d="M0 0 C3.59 4.33 4.73 9.11 6.22 14.47 C6.96 16.88 7.87 19.04 8.94 21.31 C12.26 28.49 14.57 36.22 16 44 C16.66 44 17.32 44 18 44 C17.99 42.7 17.99 41.41 17.98 40.07 C17.97 35.27 17.95 30.48 17.95 25.68 C17.94 23.6 17.93 21.53 17.92 19.45 C17.91 16.47 17.91 13.48 17.9 10.5 C17.89 9.1 17.89 9.1 17.89 7.67 C17.89 6.81 17.89 5.95 17.89 5.06 C17.88 4.3 17.88 3.54 17.88 2.75 C18 1 18 1 19 0 C21.53 -0.07 24.03 -0.09 26.56 -0.06 C27.63 -0.06 27.63 -0.06 28.72 -0.05 C30.48 -0.04 32.24 -0.02 34 0 C35.62 3.24 35.15 6.8 35.15 10.37 C35.15 11.23 35.15 12.1 35.16 12.99 C35.16 15.86 35.17 18.72 35.17 21.59 C35.17 23.58 35.17 25.57 35.18 27.56 C35.18 31.73 35.19 35.9 35.19 40.07 C35.19 45.42 35.2 50.77 35.22 56.13 C35.23 60.23 35.23 64.34 35.23 68.44 C35.23 70.42 35.23 72.39 35.24 74.37 C35.25 77.12 35.25 79.88 35.24 82.63 C35.25 83.46 35.25 84.28 35.26 85.13 C35.23 90.77 35.23 90.77 33 93 C30.03 93.23 30.03 93.23 26.5 93.19 C25.33 93.18 24.17 93.17 22.97 93.17 C20 93 20 93 18 92 C15.32 86.64 13.75 81 12.04 75.27 C10.86 71.57 9.44 68.02 7.95 64.43 C6.36 60.37 5.18 56.19 4 52 C3.67 52 3.34 52 3 52 C2.98 53.14 2.96 54.27 2.94 55.44 C2.86 59.65 2.78 63.86 2.68 68.07 C2.64 69.89 2.61 71.72 2.58 73.54 C2.53 76.16 2.47 78.78 2.41 81.39 C2.4 82.62 2.4 82.62 2.38 83.87 C2.28 87.73 2.19 89.71 0 93 C-3.19 93.4 -3.19 93.4 -7 93.38 C-8.26 93.38 -9.52 93.39 -10.81 93.4 C-11.86 93.27 -12.92 93.14 -14 93 C-16.54 89.19 -16.28 86.13 -16.26 81.72 C-16.26 80.88 -16.27 80.03 -16.27 79.16 C-16.28 76.37 -16.27 73.58 -16.27 70.78 C-16.27 68.84 -16.27 66.9 -16.27 64.96 C-16.27 60.9 -16.27 56.83 -16.26 52.77 C-16.25 47.55 -16.26 42.34 -16.27 37.12 C-16.28 33.12 -16.27 29.11 -16.27 25.11 C-16.27 23.18 -16.27 21.26 -16.27 19.34 C-16.28 16.65 -16.27 13.97 -16.26 11.28 C-16.26 10.48 -16.27 9.68 -16.27 8.86 C-16.24 5.04 -16.17 3.26 -14 0 C-9.51 -1.7 -4.55 -1.33 0 0 Z " fill="#060A08" transform="translate(696,512)"/>
<path d="M0 0 C1.73 0.06 1.73 0.06 3.5 0.11 C5.23 0.15 5.23 0.15 7 0.19 C9.93 0.43 9.93 0.43 11.93 1.43 C11.95 2.79 11.95 2.79 11.96 4.18 C12.04 12.75 12.12 21.31 12.22 29.88 C12.27 34.28 12.32 38.68 12.36 43.09 C12.39 47.33 12.44 51.58 12.49 55.83 C12.51 57.45 12.53 59.07 12.54 60.7 C12.55 62.96 12.58 65.23 12.61 67.5 C12.63 68.79 12.64 70.08 12.66 71.41 C12.62 74.54 12.62 74.54 14.93 76.43 C17.14 76.89 17.14 76.89 19.56 77.05 C20.38 77.13 21.19 77.2 22.04 77.28 C22.97 77.35 22.97 77.35 23.93 77.43 C23.94 76.52 23.95 75.61 23.95 74.68 C24.01 66.15 24.08 57.61 24.17 49.08 C24.21 44.69 24.25 40.3 24.28 35.92 C24.31 31.68 24.35 27.45 24.4 23.21 C24.41 21.6 24.42 19.98 24.43 18.37 C24.44 16.11 24.47 13.84 24.5 11.58 C24.51 10.29 24.52 9.01 24.53 7.68 C24.96 4.25 25.46 2.8 27.93 0.43 C30.75 -0.07 30.75 -0.07 33.93 -0.01 C34.99 -0.01 36.04 -0.01 37.12 -0.01 C39.93 0.43 39.93 0.43 41.58 1.49 C43.62 4.41 43.36 7.36 43.34 10.8 C43.34 11.55 43.35 12.3 43.36 13.07 C43.38 15.55 43.37 18.02 43.37 20.5 C43.37 22.23 43.38 23.95 43.38 25.68 C43.39 29.3 43.39 32.92 43.38 36.54 C43.37 41.16 43.39 45.79 43.42 50.41 C43.44 53.98 43.44 57.55 43.43 61.11 C43.43 62.82 43.44 64.52 43.45 66.23 C43.56 84.4 43.56 84.4 37.46 91.03 C32.25 95.97 25.16 95.16 18.43 95.05 C17.24 95.07 16.04 95.09 14.8 95.11 C7.5 95.07 3.29 94.52 -2.07 89.43 C-7.58 81.15 -6.38 70.28 -6.37 60.72 C-6.37 59.1 -6.38 57.49 -6.38 55.88 C-6.39 52.51 -6.39 49.14 -6.38 45.78 C-6.38 41.47 -6.39 37.15 -6.42 32.84 C-6.43 29.52 -6.43 26.19 -6.43 22.86 C-6.43 21.27 -6.43 19.68 -6.44 18.09 C-6.46 15.87 -6.45 13.66 -6.44 11.44 C-6.44 9.55 -6.44 9.55 -6.44 7.62 C-5.89 2.91 -4.82 0.67 0 0 Z " fill="#060A08" transform="translate(531.06640625,400.57421875)"/>
<path d="M0 0 C1.45 -0.04 1.45 -0.04 2.94 -0.09 C9.18 -0.14 14.31 0.31 19.31 4.31 C24.34 9.71 25.06 15.04 24.81 22.19 C24.82 23.47 24.82 23.47 24.82 24.77 C24.75 29.4 24.75 29.4 24.31 31.31 C20.82 33.64 19.36 33.55 15.25 33.5 C13.65 33.49 13.65 33.49 12.03 33.48 C9.31 33.31 9.31 33.31 7.31 32.31 C6.69 30.15 6.16 27.95 5.69 25.75 C5.43 24.55 5.17 23.35 4.9 22.12 C4.71 21.19 4.51 20.27 4.31 19.31 C1.51 18.46 1.51 18.46 -1.69 18.31 C-4.19 19.68 -4.19 19.68 -5.69 22.31 C-6.39 25.81 -6.39 25.81 -6.44 29.56 C-6.49 30.83 -6.55 32.09 -6.61 33.39 C-6.64 34.35 -6.66 35.32 -6.69 36.31 C-6.05 36.42 -5.41 36.52 -4.75 36.63 C-0.63 37.55 3.31 38.9 7.31 40.25 C8.11 40.51 8.9 40.78 9.72 41.05 C22.02 45.19 22.02 45.19 24.31 48.31 C24.62 50.89 24.76 53.22 24.75 55.8 C24.75 56.53 24.76 57.26 24.76 58.02 C24.77 59.57 24.77 61.13 24.76 62.68 C24.75 65.04 24.78 67.4 24.81 69.76 C24.81 71.27 24.81 72.78 24.81 74.3 C24.83 75.34 24.83 75.34 24.84 76.41 C24.76 82.56 22.74 86.39 18.85 91.07 C13.2 95.47 7.14 94.98 0.25 94.81 C-1.49 94.82 -1.49 94.82 -3.26 94.82 C-9.16 94.75 -13.72 94.64 -18.69 91.31 C-18.69 90.65 -18.69 89.99 -18.69 89.31 C-19.35 89.31 -20.01 89.31 -20.69 89.31 C-24.13 83.85 -24.08 79.24 -23.94 73 C-23.93 72.08 -23.93 71.16 -23.92 70.22 C-23.84 63.47 -23.84 63.47 -22.69 62.31 C-19.99 62.24 -17.32 62.22 -14.62 62.25 C-13.49 62.26 -13.49 62.26 -12.33 62.26 C-10.45 62.28 -8.57 62.29 -6.69 62.31 C-6.64 63.07 -6.59 63.83 -6.54 64.61 C-6.46 65.61 -6.39 66.6 -6.31 67.62 C-6.24 68.61 -6.17 69.6 -6.1 70.61 C-5.85 73.53 -5.85 73.53 -3.69 76.31 C-1.71 76.68 -1.71 76.68 0.44 76.5 C1.72 76.44 3 76.38 4.31 76.31 C5.52 72.69 5.42 69.39 5.38 65.62 C5.37 64.92 5.37 64.22 5.36 63.5 C5.35 61.77 5.33 60.04 5.31 58.31 C4.31 58.2 3.31 58.08 2.29 57.96 C-1.7 57.39 -5.45 56.25 -9.25 54.94 C-9.88 54.73 -10.52 54.52 -11.17 54.3 C-22.02 50.64 -22.02 50.64 -23.69 47.31 C-23.82 44.77 -23.9 42.25 -23.93 39.71 C-23.93 38.95 -23.94 38.19 -23.95 37.41 C-23.96 35.81 -23.97 34.2 -23.98 32.59 C-24 30.15 -24.04 27.71 -24.09 25.27 C-24.1 23.71 -24.11 22.15 -24.11 20.58 C-24.14 19.5 -24.14 19.5 -24.17 18.39 C-24.14 12.95 -22.79 9.8 -19.69 5.31 C-13.13 0.23 -7.97 0.08 0 0 Z " fill="#060A08" transform="translate(662.6875,400.6875)"/>
<path d="M0 0 C0.9 -0.01 1.81 -0.02 2.74 -0.04 C9.16 -0.01 15.09 0.42 20.15 4.73 C24.55 9.85 24.15 15.36 23.88 21.81 C23.85 22.83 23.83 23.85 23.81 24.9 C23.75 27.39 23.67 29.88 23.56 32.38 C20.5 33.4 18.28 33.54 15.06 33.56 C14.1 33.58 13.14 33.59 12.16 33.61 C9.56 33.38 9.56 33.38 6.56 31.38 C6.09 29.35 6.09 29.35 5.94 27 C5.73 24 5.37 21.27 4.56 18.38 C0.03 17.95 0.03 17.95 -4.12 19.41 C-6.13 22.41 -6.01 25.56 -6.12 29.06 C-6.16 29.76 -6.19 30.47 -6.23 31.19 C-6.31 32.92 -6.38 34.65 -6.44 36.38 C-5.76 36.49 -5.09 36.61 -4.39 36.73 C-0.88 37.5 2.48 38.59 5.88 39.75 C6.54 39.97 7.2 40.2 7.88 40.43 C21.11 44.92 21.11 44.92 23.56 47.38 C23.74 50.24 23.79 53.01 23.76 55.88 C23.75 56.72 23.75 57.56 23.75 58.43 C23.74 61.12 23.71 63.81 23.69 66.5 C23.68 68.32 23.67 70.14 23.66 71.96 C23.64 76.44 23.6 80.9 23.56 85.38 C22.9 85.38 22.24 85.38 21.56 85.38 C21.45 85.98 21.34 86.58 21.23 87.21 C20.3 90.21 18.5 91.65 15.93 93.36 C10.89 95.52 5.45 95.09 0.06 95 C-1.14 95.02 -2.33 95.04 -3.57 95.06 C-10.88 95.02 -15.08 94.48 -20.44 89.38 C-23.22 86.27 -23.81 84.36 -23.77 80.21 C-23.76 79.23 -23.76 78.26 -23.75 77.25 C-23.73 76.24 -23.71 75.23 -23.69 74.19 C-23.68 73.16 -23.68 72.14 -23.67 71.09 C-23.59 63.53 -23.59 63.53 -22.44 62.38 C-19.93 62.28 -17.45 62.24 -14.94 62.25 C-14.23 62.25 -13.53 62.24 -12.81 62.24 C-7.56 62.25 -7.56 62.25 -6.44 63.38 C-6.23 65.16 -6.07 66.96 -5.94 68.75 C-5.71 71.9 -5.44 74.37 -4.44 77.38 C-1.47 77.38 1.5 77.38 4.56 77.38 C5.57 73.22 5.66 69.33 5.62 65.06 C5.62 63.81 5.61 62.55 5.6 61.26 C5.59 60.31 5.57 59.36 5.56 58.38 C4.56 58.26 3.56 58.14 2.54 58.02 C-1.45 57.45 -5.2 56.31 -9 55 C-9.63 54.79 -10.27 54.58 -10.92 54.37 C-20.77 51.04 -20.77 51.04 -23.44 48.38 C-23.75 43.07 -23.79 37.76 -23.84 32.45 C-23.86 30.66 -23.9 28.87 -23.95 27.08 C-24.01 24.5 -24.04 21.92 -24.06 19.34 C-24.09 18.54 -24.11 17.75 -24.14 16.94 C-24.12 11.5 -22.76 8.73 -19.04 4.78 C-13.4 -0.15 -7.07 -0.09 0 0 Z " fill="#060A08" transform="translate(350.4375,400.625)"/>
<path d="M0 0 C1.04 -0.02 2.08 -0.04 3.14 -0.06 C10.04 -0.1 14.61 0.55 20 5.19 C22.88 8.59 24 11.27 24.02 15.73 C24.02 16.98 24.02 16.98 24.02 18.26 C24.02 19.12 24.01 19.99 24 20.88 C24.01 22.18 24.01 22.18 24.02 23.52 C24.02 24.35 24.02 25.18 24.02 26.04 C24.01 26.8 24.01 27.56 24.01 28.34 C23.75 30.25 23.75 30.25 21.75 32.25 C18.53 32.48 18.53 32.48 14.69 32.44 C13.42 32.43 12.15 32.42 10.84 32.42 C7.75 32.25 7.75 32.25 6.75 31.25 C6.68 29.23 6.67 27.21 6.69 25.19 C6.7 24.08 6.71 22.98 6.71 21.84 C6.73 20.99 6.74 20.13 6.75 19.25 C5.32 19 3.88 18.78 2.44 18.56 C1.64 18.43 0.84 18.31 0.01 18.18 C-2.26 18.07 -2.26 18.07 -4 19.28 C-5.88 22.25 -5.78 24.96 -5.94 28.44 C-6 29.71 -6.07 30.98 -6.14 32.29 C-6.17 33.27 -6.21 34.24 -6.25 35.25 C-5.64 35.42 -5.04 35.59 -4.41 35.77 C1.01 37.34 6.21 39.18 11.42 41.34 C13.5 42.15 15.53 42.77 17.69 43.31 C21.92 44.61 21.92 44.61 23.75 47.25 C24.05 49.91 24.17 52.33 24.15 54.99 C24.15 55.75 24.15 56.51 24.16 57.29 C24.16 58.89 24.15 60.5 24.14 62.1 C24.13 64.54 24.14 66.98 24.16 69.43 C24.16 70.99 24.15 72.55 24.15 74.11 C24.16 75.2 24.16 75.2 24.17 76.31 C24.1 81.02 23.14 84.21 20.75 88.25 C20.09 88.25 19.43 88.25 18.75 88.25 C18.75 88.91 18.75 89.57 18.75 90.25 C12.95 94.08 7.16 93.77 0.38 93.75 C-0.72 93.78 -1.82 93.81 -2.95 93.84 C-9.98 93.85 -14.88 92.97 -20.25 88.25 C-25.3 81.9 -24.89 73.01 -24.25 65.25 C-23.59 63.93 -22.93 62.61 -22.25 61.25 C-17.3 61.25 -12.35 61.25 -7.25 61.25 C-5.92 63.9 -5.65 66.45 -5.19 69.38 C-5.01 70.47 -4.83 71.57 -4.65 72.7 C-4.45 73.96 -4.45 73.96 -4.25 75.25 C-2.77 75.28 -1.29 75.3 0.19 75.31 C1.01 75.32 1.83 75.34 2.68 75.35 C4.74 75.48 4.74 75.48 5.75 74.25 C5.82 71.55 5.84 68.88 5.81 66.19 C5.81 65.43 5.8 64.67 5.8 63.89 C5.79 62.01 5.77 60.13 5.75 58.25 C4.68 57.95 3.6 57.65 2.5 57.34 C-0.15 56.57 -2.64 55.78 -5.19 54.75 C-7.9 53.69 -10.53 52.93 -13.38 52.31 C-17.26 51.4 -20.09 49.72 -23.25 47.25 C-25.33 43.08 -24.44 37.68 -24.44 33.09 C-24.44 31.09 -24.46 29.08 -24.47 27.08 C-24.48 25.8 -24.48 24.52 -24.48 23.21 C-24.48 22.04 -24.49 20.88 -24.49 19.68 C-24.23 15.96 -23.39 12.79 -22.25 9.25 C-22.02 8.53 -21.8 7.81 -21.56 7.06 C-16.39 -0.07 -7.9 0.04 0 0 Z " fill="#060A08" transform="translate(878.25,511.75)"/>
<path d="M0 0 C1.04 -0.02 2.08 -0.04 3.14 -0.06 C10.04 -0.1 14.61 0.55 20 5.19 C22.99 8.72 24 11.39 23.95 16.02 C23.94 16.91 23.93 17.79 23.93 18.71 C23.91 19.63 23.89 20.55 23.88 21.5 C23.87 22.44 23.86 23.37 23.85 24.34 C23.82 26.64 23.79 28.95 23.75 31.25 C20.9 32.67 18.42 32.42 15.25 32.44 C13.5 32.46 13.5 32.46 11.72 32.48 C8.75 32.25 8.75 32.25 6.75 30.25 C6.41 27.98 6.31 25.74 6.19 23.44 C5.65 20.74 5.03 19.8 2.75 18.25 C0.45 18.1 0.45 18.1 -1.94 18.56 C-3.36 18.79 -4.78 19.02 -6.25 19.25 C-5.75 27.17 -5.75 27.17 -5.25 35.25 C-3.6 35.85 -1.95 36.45 -0.25 37.06 C3.18 38.31 6.6 39.57 10 40.88 C13.72 42.31 13.72 42.31 17.56 43.25 C21.94 44.62 21.94 44.62 23.75 47.25 C24.05 49.91 24.17 52.33 24.15 54.99 C24.15 55.75 24.15 56.51 24.16 57.29 C24.16 58.89 24.15 60.5 24.14 62.1 C24.13 64.54 24.14 66.98 24.16 69.43 C24.16 70.99 24.15 72.55 24.15 74.11 C24.16 75.2 24.16 75.2 24.17 76.31 C24.1 81.02 23.14 84.21 20.75 88.25 C20.09 88.25 19.43 88.25 18.75 88.25 C18.75 88.91 18.75 89.57 18.75 90.25 C12.92 94.13 7.07 93.7 0.25 93.62 C-0.87 93.64 -1.98 93.65 -3.13 93.66 C-8.97 93.64 -13.33 93.53 -18.25 90.25 C-18.25 89.59 -18.25 88.93 -18.25 88.25 C-18.91 88.25 -19.57 88.25 -20.25 88.25 C-24.32 83.63 -23.63 78.29 -23.5 72.5 C-23.49 71.53 -23.49 70.56 -23.48 69.56 C-23.4 62.4 -23.4 62.4 -22.25 61.25 C-19.72 61.18 -17.22 61.16 -14.69 61.19 C-13.98 61.19 -13.27 61.2 -12.53 61.2 C-10.77 61.21 -9.01 61.23 -7.25 61.25 C-5.6 64.54 -5.8 68.18 -5.53 71.82 C-5.51 74.2 -5.51 74.2 -4.25 75.25 C-2.74 75.48 -1.21 75.66 0.31 75.81 C1.14 75.9 1.97 75.98 2.82 76.07 C3.45 76.13 4.09 76.19 4.75 76.25 C5.58 72.63 5.89 69.28 5.88 65.56 C5.88 64.61 5.88 63.66 5.88 62.68 C5.91 60.24 5.91 60.24 4.75 58.25 C2.82 57.55 0.85 56.94 -1.12 56.38 C-5.56 55.06 -9.95 53.72 -14.31 52.19 C-15.17 51.89 -16.03 51.59 -16.91 51.28 C-19.58 50.11 -21.21 49.36 -23.25 47.25 C-23.64 44.38 -23.79 41.91 -23.75 39.04 C-23.75 38.23 -23.75 37.43 -23.75 36.6 C-23.75 34.9 -23.74 33.19 -23.72 31.49 C-23.69 28.89 -23.7 26.29 -23.71 23.7 C-23.7 22.04 -23.69 20.38 -23.68 18.73 C-23.69 17.95 -23.69 17.18 -23.69 16.38 C-23.61 11.83 -23.05 8.88 -20.25 5.25 C-13.63 0.24 -7.99 0.04 0 0 Z " fill="#060A08" transform="translate(821.25,511.75)"/>
<path d="M0 0 C1.16 -0.02 1.16 -0.02 2.34 -0.04 C8.04 -0.01 8.04 -0.01 10.21 1.79 C11.72 3.65 12.07 4.89 12.5 7.25 C12.65 8.04 12.81 8.84 12.97 9.65 C13.14 10.55 13.32 11.45 13.5 12.38 C13.99 14.52 14.49 16.67 15 18.81 C17.01 27.5 18.68 36.19 20.04 45 C20.26 47.32 20.26 47.32 21.5 48.38 C21.87 50.18 22.2 51.99 22.5 53.81 C23.11 57.72 23.11 57.72 24.5 61.38 C24.68 62.79 24.82 64.21 24.94 65.62 C25.33 69.47 26.18 72.73 27.5 76.38 C29.19 82.11 30.06 87.37 29.5 93.38 C27.51 95.37 23.84 94.69 21.12 94.75 C20.1 94.81 20.1 94.81 19.05 94.86 C17.04 94.9 17.04 94.9 13.5 94.38 C10.7 91.2 10.11 88.34 9.88 84.19 C9.7 80.65 9.7 80.65 8.5 77.38 C2.56 77.05 -3.38 76.72 -9.5 76.38 C-10.23 80.76 -10.73 84.91 -11.02 89.32 C-11.64 92 -12.19 92.86 -14.5 94.38 C-17.79 94.7 -17.79 94.7 -21.56 94.62 C-22.81 94.61 -24.06 94.59 -25.35 94.58 C-28.5 94.38 -28.5 94.38 -30.5 93.38 C-30.73 88.62 -29.93 84.9 -28.5 80.38 C-27.03 75.69 -26.24 71.36 -25.78 66.5 C-25.4 63.65 -24.44 61.09 -23.5 58.38 C-23.16 56.04 -22.82 53.71 -22.5 51.38 C-22 50.88 -22 50.88 -21.5 50.38 C-21.22 48.19 -21.05 46 -20.88 43.8 C-20.5 41.38 -20.5 41.38 -19.56 39.11 C-18.14 35.45 -17.61 31.79 -17 27.94 C-16.2 22.88 -15.18 18.23 -13.5 13.38 C-12.99 10.8 -12.57 8.23 -12.16 5.64 C-10.36 -0.56 -5.61 -0.08 0 0 Z M-1.5 30.38 C-1.56 31.09 -1.62 31.8 -1.68 32.53 C-1.81 33.91 -1.81 33.91 -1.94 35.31 C-2.02 36.23 -2.1 37.15 -2.18 38.09 C-2.5 40.38 -2.5 40.38 -3.5 41.38 C-3.87 43.64 -4.2 45.91 -4.5 48.19 C-5.41 55.01 -5.41 55.01 -6.12 57.76 C-6.25 58.29 -6.37 58.83 -6.5 59.38 C-5.47 60.63 -5.47 60.63 -3.21 60.47 C-2.3 60.46 -1.38 60.45 -0.44 60.44 C0.48 60.43 1.4 60.42 2.35 60.41 C3.06 60.4 3.77 60.39 4.5 60.38 C5.89 55.78 4.84 52.9 3.5 48.38 C3.17 45.72 2.94 43.08 2.75 40.41 C2.71 38.38 2.71 38.38 1.5 37.38 C1.13 35.05 0.8 32.71 0.5 30.38 C-0.16 30.38 -0.82 30.38 -1.5 30.38 Z " fill="#060A08" transform="translate(288.5,400.625)"/>
<path d="M0 0 C0.71 -0.01 1.42 -0.01 2.16 -0.02 C3.66 -0.02 5.17 -0.02 6.68 -0.01 C8.96 -0 11.25 -0.03 13.54 -0.06 C15 -0.07 16.47 -0.07 17.94 -0.06 C18.61 -0.07 19.29 -0.08 19.99 -0.1 C26.31 -0.01 30.1 2.44 35.05 6.18 C40.08 12.9 39.07 22.22 39.05 30.21 C39.05 32.36 39.07 34.51 39.1 36.66 C39.17 53.24 39.17 53.24 33.73 59.87 C30.29 62.56 28.41 63.68 24.07 63.63 C23.17 63.62 22.28 63.62 21.36 63.61 C20.43 63.59 19.5 63.58 18.55 63.56 C17.61 63.55 16.67 63.54 15.7 63.53 C13.38 63.51 11.06 63.47 8.73 63.43 C8.74 64.3 8.76 65.17 8.77 66.06 C8.8 69.28 8.83 72.5 8.84 75.71 C8.85 77.11 8.87 78.5 8.89 79.89 C8.91 81.89 8.92 83.89 8.93 85.89 C8.94 87.1 8.95 88.3 8.96 89.54 C8.73 92.43 8.73 92.43 6.73 94.43 C4.19 94.63 1.78 94.71 -0.77 94.68 C-1.46 94.69 -2.14 94.7 -2.86 94.71 C-8.01 94.69 -8.01 94.69 -10.27 92.43 C-10.47 89.62 -10.55 86.9 -10.54 84.08 C-10.55 83.22 -10.55 82.36 -10.56 81.47 C-10.57 78.6 -10.57 75.74 -10.57 72.88 C-10.57 70.89 -10.57 68.9 -10.58 66.92 C-10.59 62.75 -10.59 58.59 -10.58 54.42 C-10.58 49.08 -10.59 43.73 -10.62 38.39 C-10.63 34.29 -10.63 30.19 -10.63 26.08 C-10.63 24.11 -10.63 22.14 -10.64 20.17 C-10.66 17.42 -10.65 14.67 -10.64 11.91 C-10.65 11.09 -10.65 10.28 -10.66 9.43 C-10.61 3.88 -10.61 3.88 -8.95 1.73 C-6.25 -0.35 -3.26 -0.01 0 0 Z M8.73 17.43 C8.73 27 8.73 36.57 8.73 46.43 C12.03 46.43 15.33 46.43 18.73 46.43 C21.78 41.86 21.06 37.31 21.05 31.93 C21.06 30.88 21.08 29.82 21.1 28.73 C21.1 27.71 21.1 26.7 21.1 25.65 C21.1 24.72 21.1 23.79 21.11 22.84 C20.91 20.02 20.91 20.02 17.73 17.43 C14.76 17.43 11.79 17.43 8.73 17.43 Z " fill="#060A08" transform="translate(478.265625,400.56640625)"/>
<path d="M0 0 C0.85 -0.01 1.7 -0.03 2.58 -0.04 C3.95 -0.04 3.95 -0.04 5.35 -0.05 C6.3 -0.05 7.24 -0.06 8.21 -0.07 C10.21 -0.08 12.2 -0.08 14.19 -0.08 C17.25 -0.08 20.3 -0.12 23.36 -0.16 C25.29 -0.16 27.23 -0.17 29.17 -0.17 C30.54 -0.19 30.54 -0.19 31.94 -0.21 C38.25 -0.17 38.25 -0.17 40.84 2.15 C42.01 4.86 42.12 6.96 42.07 9.92 C42.07 10.88 42.06 11.84 42.06 12.83 C41.76 15.29 41.76 15.29 39.76 17.29 C36.96 17.61 36.96 17.61 33.44 17.7 C31.55 17.76 31.55 17.76 29.63 17.82 C27.65 17.87 27.65 17.87 25.63 17.92 C24.29 17.95 22.96 17.99 21.62 18.03 C18.33 18.13 15.05 18.21 11.76 18.29 C11.76 25.22 11.76 32.15 11.76 39.29 C13.34 39.28 14.91 39.27 16.54 39.26 C18.59 39.25 20.64 39.24 22.7 39.23 C24.26 39.22 24.26 39.22 25.85 39.2 C26.84 39.2 27.83 39.2 28.85 39.19 C29.77 39.19 30.68 39.18 31.63 39.18 C33.76 39.29 33.76 39.29 34.76 40.29 C34.83 42.64 34.84 45 34.82 47.35 C34.81 48.64 34.8 49.93 34.79 51.26 C34.78 52.26 34.77 53.26 34.76 54.29 C31.77 56.01 29.65 56.53 26.21 56.49 C25.45 56.48 24.69 56.48 23.91 56.47 C22.95 56.45 21.99 56.43 21.01 56.42 C16.43 56.35 16.43 56.35 11.76 56.29 C11.76 62.89 11.76 69.49 11.76 76.29 C13.76 76.33 15.76 76.37 17.81 76.4 C19.75 76.45 21.68 76.5 23.61 76.55 C25.62 76.6 27.62 76.64 29.63 76.67 C31.52 76.72 31.52 76.72 33.44 76.78 C34.6 76.8 35.76 76.83 36.96 76.86 C37.89 77 38.81 77.14 39.76 77.29 C42.08 80.76 42.03 82.25 42.01 86.35 C42.02 87.95 42.02 87.95 42.03 89.58 C41.76 92.29 41.76 92.29 39.76 94.29 C37.82 94.54 37.82 94.54 35.43 94.53 C34.09 94.54 34.09 94.54 32.72 94.54 C31.76 94.54 30.79 94.53 29.79 94.52 C28.8 94.52 27.81 94.52 26.79 94.52 C24.69 94.52 22.59 94.51 20.49 94.5 C17.27 94.48 14.05 94.48 10.83 94.48 C8.8 94.47 6.76 94.47 4.73 94.46 C3.28 94.46 3.28 94.46 1.8 94.46 C0.45 94.45 0.45 94.45 -0.91 94.44 C-2.1 94.43 -2.1 94.43 -3.3 94.42 C-5.24 94.29 -5.24 94.29 -7.24 93.29 C-7.31 81.46 -7.36 69.63 -7.4 57.8 C-7.41 52.31 -7.43 46.81 -7.47 41.32 C-7.5 36.02 -7.52 30.73 -7.52 25.43 C-7.53 23.4 -7.54 21.38 -7.56 19.35 C-7.58 16.53 -7.58 13.7 -7.58 10.87 C-7.59 10.03 -7.6 9.18 -7.61 8.31 C-7.6 5.99 -7.6 5.99 -7.24 2.29 C-4.16 0.24 -3.48 0.04 0 0 Z " fill="#060A08" transform="translate(703.240234375,400.70947265625)"/>
<path d="M0 0 C1.43 -0.03 1.43 -0.03 2.88 -0.06 C9.96 -0.06 15.34 1.01 20.65 5.9 C24.76 10.77 24.73 15.6 24.5 21.75 C24.49 22.66 24.49 23.56 24.48 24.49 C24.36 31.14 24.36 31.14 22.06 33.44 C19.09 33.7 19.09 33.7 15.56 33.69 C14.4 33.69 13.23 33.7 12.03 33.7 C9.06 33.44 9.06 33.44 7.06 31.44 C6.72 28.61 6.62 25.81 6.5 22.97 C6.36 22.13 6.21 21.3 6.06 20.44 C3.16 18.05 3.16 18.05 -0.56 18.75 C-3.76 19.08 -3.76 19.08 -4.94 20.44 C-5.04 22.11 -5.07 23.79 -5.07 25.46 C-5.07 26.53 -5.07 27.6 -5.08 28.71 C-5.07 29.87 -5.07 31.04 -5.07 32.24 C-5.07 33.43 -5.07 34.62 -5.07 35.85 C-5.07 38.37 -5.07 40.9 -5.07 43.42 C-5.06 47.29 -5.07 51.16 -5.07 55.03 C-5.07 57.47 -5.07 59.92 -5.07 62.37 C-5.07 63.53 -5.07 64.69 -5.08 65.89 C-5.07 66.97 -5.07 68.05 -5.07 69.16 C-5.07 70.11 -5.07 71.06 -5.06 72.03 C-5.04 74.58 -5.04 74.58 -3.94 77.44 C-0.97 77.44 2 77.44 5.06 77.44 C5.06 76.78 5.06 76.12 5.06 75.44 C5.72 75.44 6.38 75.44 7.06 75.44 C7.05 74.58 7.04 73.73 7.03 72.85 C7.02 71.74 7.01 70.64 7 69.5 C6.99 68.4 6.98 67.3 6.96 66.16 C7.06 63.44 7.06 63.44 8.06 62.44 C10.57 62.34 13.05 62.3 15.56 62.31 C16.27 62.31 16.97 62.3 17.69 62.3 C22.94 62.31 22.94 62.31 24.06 63.44 C24.34 66.85 24.29 70.27 24.31 73.69 C24.33 74.64 24.35 75.6 24.38 76.58 C24.43 85.62 24.43 85.62 21.06 89.44 C20.4 89.44 19.74 89.44 19.06 89.44 C19.06 90.1 19.06 90.76 19.06 91.44 C13.18 95.37 7.08 94.99 0.19 95 C-1.53 95.06 -1.53 95.06 -3.29 95.11 C-9.84 95.15 -14.18 94.55 -19.36 90.41 C-25.14 83.19 -24.36 75.1 -24.3 66.31 C-24.3 64.83 -24.3 63.35 -24.3 61.88 C-24.3 58.79 -24.29 55.7 -24.27 52.61 C-24.25 48.67 -24.25 44.72 -24.26 40.77 C-24.26 37.73 -24.25 34.68 -24.24 31.63 C-24.24 30.18 -24.24 28.72 -24.24 27.27 C-24.24 25.23 -24.23 23.19 -24.21 21.16 C-24.21 20 -24.2 18.85 -24.2 17.66 C-23.73 11.88 -22.05 7.55 -17.94 3.44 C-11.96 0.17 -6.73 -0.05 0 0 Z " fill="#060A08" transform="translate(434.9375,400.5625)"/>
<path d="M0 0 C6.37 -0.08 12.74 -0.13 19.12 -0.16 C21.29 -0.18 23.45 -0.2 25.62 -0.23 C28.74 -0.26 31.85 -0.28 34.96 -0.29 C36.42 -0.32 36.42 -0.32 37.91 -0.34 C38.81 -0.34 39.71 -0.34 40.64 -0.34 C41.44 -0.35 42.23 -0.35 43.05 -0.36 C43.69 -0.24 44.34 -0.12 45 0 C47.22 3.33 47.3 4.6 47.31 8.5 C47.33 9.46 47.35 10.42 47.36 11.41 C47 14 47 14 45.79 15.78 C42.13 18.27 37.99 18.1 33.7 17.88 C32.72 17.83 31.75 17.78 30.74 17.73 C29.73 17.68 28.73 17.62 27.69 17.56 C26.66 17.51 25.63 17.46 24.58 17.4 C22.05 17.28 19.53 17.14 17 17 C17 23.6 17 30.2 17 37 C19.26 37.09 19.26 37.09 21.56 37.18 C23.52 37.27 25.48 37.35 27.44 37.44 C28.43 37.48 29.42 37.52 30.45 37.56 C31.86 37.62 31.86 37.62 33.31 37.68 C34.18 37.72 35.06 37.76 35.96 37.79 C38 38 38 38 39 39 C39.07 41.53 39.09 44.03 39.06 46.56 C39.06 47.27 39.05 47.98 39.05 48.72 C39.04 50.48 39.02 52.24 39 54 C36.65 55.17 35.05 55.2 32.43 55.32 C31.22 55.37 31.22 55.37 29.98 55.43 C28.96 55.47 27.93 55.52 26.88 55.56 C23.62 55.71 20.36 55.85 17 56 C16.67 62.6 16.34 69.2 16 76 C18.98 75.93 18.98 75.93 22.02 75.86 C23.95 75.83 25.87 75.8 27.8 75.78 C29.79 75.75 31.79 75.7 33.78 75.65 C35.04 75.64 36.29 75.62 37.58 75.61 C39.32 75.58 39.32 75.58 41.09 75.55 C44 76 44 76 45.88 77.88 C47.17 80.32 47.34 81.82 47.25 84.56 C47.23 85.33 47.22 86.09 47.2 86.88 C47 89 47 89 46 92 C43.71 93.15 42.41 93.13 39.86 93.15 C38.58 93.15 38.58 93.15 37.27 93.16 C35.88 93.17 35.88 93.17 34.47 93.17 C33.52 93.17 32.58 93.17 31.6 93.18 C29.6 93.18 27.59 93.19 25.59 93.19 C22.51 93.19 19.44 93.21 16.36 93.22 C14.42 93.23 12.48 93.23 10.53 93.23 C9.61 93.24 8.68 93.24 7.73 93.25 C6.88 93.25 6.02 93.25 5.14 93.24 C4.39 93.24 3.64 93.25 2.86 93.25 C1 93 1 93 -1 91 C-1.19 88.18 -1.26 85.46 -1.24 82.63 C-1.24 81.77 -1.25 80.9 -1.25 80.01 C-1.25 77.14 -1.24 74.28 -1.23 71.41 C-1.23 69.42 -1.23 67.43 -1.23 65.44 C-1.23 61.27 -1.22 57.1 -1.21 52.93 C-1.19 47.58 -1.18 42.23 -1.19 36.87 C-1.19 32.77 -1.18 28.66 -1.17 24.56 C-1.17 22.58 -1.17 20.61 -1.17 18.63 C-1.16 15.88 -1.16 13.12 -1.15 10.37 C-1.15 9.54 -1.15 8.72 -1.15 7.87 C-1.11 2.23 -1.11 2.23 0 0 Z " fill="#060A08" transform="translate(742,512)"/>
<path d="M0 0 C1.31 -0.01 1.31 -0.01 2.65 -0.02 C4.08 -0.02 4.08 -0.02 5.53 -0.02 C6.99 -0.03 6.99 -0.03 8.47 -0.03 C10.53 -0.04 12.59 -0.04 14.64 -0.04 C17.8 -0.04 20.96 -0.06 24.11 -0.08 C26.11 -0.08 28.1 -0.08 30.09 -0.09 C31.04 -0.09 31.99 -0.1 32.97 -0.11 C33.85 -0.1 34.72 -0.1 35.63 -0.1 C36.4 -0.1 37.18 -0.1 37.97 -0.1 C39.88 0.15 39.88 0.15 41.88 2.15 C42.18 5.11 42.18 5.11 42.19 8.65 C42.21 9.81 42.23 10.98 42.24 12.18 C42.12 13.16 42 14.14 41.88 15.15 C38.34 17.51 36.87 17.38 32.68 17.34 C31.47 17.33 30.26 17.33 29.02 17.32 C27.12 17.3 27.12 17.3 25.19 17.27 C23.92 17.26 22.64 17.25 21.33 17.24 C18.18 17.22 15.03 17.18 11.88 17.15 C11.88 23.75 11.88 30.35 11.88 37.15 C19.14 37.48 26.4 37.81 33.88 38.15 C34.9 41.19 35.08 43.45 35.13 46.65 C35.15 47.6 35.18 48.56 35.21 49.55 C34.88 52.15 34.88 52.15 33.65 53.79 C31.36 55.54 30.07 55.49 27.21 55.44 C26.32 55.43 25.43 55.42 24.51 55.41 C23.11 55.37 23.11 55.37 21.69 55.33 C20.75 55.32 19.81 55.31 18.84 55.29 C16.52 55.26 14.2 55.21 11.88 55.15 C11.85 56.26 11.83 57.38 11.8 58.53 C11.71 62.65 11.61 66.77 11.51 70.9 C11.46 72.69 11.42 74.47 11.38 76.26 C11.32 78.83 11.26 81.39 11.2 83.95 C11.17 85.16 11.17 85.16 11.14 86.39 C10.99 92.03 10.99 92.03 9.88 93.15 C7.55 93.24 5.21 93.27 2.88 93.27 C1.6 93.27 0.32 93.28 -1 93.28 C-4.12 93.15 -4.12 93.15 -5.12 92.15 C-5.22 89.32 -5.26 86.52 -5.25 83.69 C-5.25 82.81 -5.25 81.92 -5.26 81.01 C-5.26 78.06 -5.26 75.12 -5.25 72.18 C-5.25 70.14 -5.26 68.1 -5.26 66.07 C-5.26 61.79 -5.26 57.52 -5.25 53.25 C-5.25 47.75 -5.25 42.26 -5.25 36.77 C-5.26 32.56 -5.26 28.36 -5.25 24.15 C-5.25 22.12 -5.25 20.1 -5.26 18.07 C-5.26 15.25 -5.26 12.42 -5.25 9.6 C-5.25 8.75 -5.25 7.9 -5.26 7.03 C-5.23 0.03 -5.23 0.03 0 0 Z " fill="#060A08" transform="translate(550.120849609375,511.854736328125)"/>
<path d="M0 0 C1.25 -0.04 2.49 -0.08 3.78 -0.12 C7.06 0.44 7.06 0.44 8.75 2.53 C10.35 6.08 10.42 8.63 10.4 12.52 C10.4 13.56 10.4 13.56 10.4 14.62 C10.4 16.9 10.38 19.18 10.36 21.46 C10.35 23.04 10.35 24.63 10.34 26.21 C10.33 30.37 10.3 34.53 10.27 38.69 C10.24 42.94 10.22 47.19 10.21 51.44 C10.18 59.77 10.13 68.11 10.06 76.44 C10.88 76.46 11.69 76.49 12.53 76.51 C16.18 76.63 19.84 76.75 23.5 76.88 C24.78 76.91 26.06 76.95 27.38 76.99 C28.59 77.04 29.81 77.08 31.06 77.12 C32.18 77.16 33.31 77.19 34.47 77.23 C37.06 77.44 37.06 77.44 38.06 78.44 C38.16 80.95 38.2 83.43 38.19 85.94 C38.19 86.99 38.19 86.99 38.2 88.07 C38.19 93.31 38.19 93.31 37.06 94.44 C35.69 94.54 34.32 94.57 32.94 94.57 C32.07 94.57 31.19 94.57 30.29 94.58 C28.87 94.57 28.87 94.57 27.41 94.57 C26.44 94.57 25.47 94.57 24.47 94.57 C22.41 94.57 20.36 94.57 18.3 94.57 C15.14 94.56 11.99 94.57 8.83 94.57 C6.84 94.57 4.84 94.57 2.85 94.57 C1.9 94.57 0.95 94.57 -0.03 94.58 C-1.34 94.57 -1.34 94.57 -2.69 94.57 C-3.46 94.57 -4.24 94.57 -5.03 94.56 C-6.94 94.44 -6.94 94.44 -8.94 93.44 C-8.98 81.61 -9.02 69.78 -9.04 57.95 C-9.05 52.45 -9.07 46.96 -9.09 41.47 C-9.11 36.17 -9.12 30.87 -9.13 25.58 C-9.13 23.55 -9.14 21.53 -9.15 19.5 C-9.16 16.67 -9.17 13.85 -9.16 11.02 C-9.17 10.17 -9.18 9.33 -9.19 8.46 C-9.16 0.8 -7.4 0.13 0 0 Z " fill="#060A08" transform="translate(591.9375,400.5625)"/>
<path d="M0 0 C1.05 -0.02 2.1 -0.04 3.19 -0.05 C4.1 -0.07 5.02 -0.09 5.97 -0.11 C8.86 0.13 10.96 0.81 13.54 2.1 C14.91 4.82 14.75 7.07 14.79 10.1 C14.82 11.17 14.85 12.25 14.87 13.35 C14.76 14.26 14.66 15.17 14.54 16.1 C11.02 18.45 9.52 18.32 5.36 18.23 C3.73 18.2 3.73 18.2 2.06 18.17 C0.82 18.14 0.82 18.14 -0.46 18.1 C-0.45 18.74 -0.44 19.38 -0.44 20.03 C-0.33 36.26 -0.5 52.48 -0.83 68.7 C-0.87 70.81 -0.91 72.91 -0.95 75.02 C-1.01 78 -1.07 80.98 -1.14 83.96 C-1.16 85.32 -1.16 85.32 -1.19 86.72 C-1.34 92.99 -1.34 92.99 -2.46 94.1 C-4.77 94.23 -7.08 94.28 -9.39 94.29 C-10.66 94.3 -11.93 94.32 -13.23 94.33 C-16.46 94.1 -16.46 94.1 -18.46 92.1 C-18.73 89.13 -18.73 89.13 -18.76 85.28 C-18.77 84.58 -18.77 83.88 -18.78 83.16 C-18.81 80.84 -18.82 78.51 -18.83 76.19 C-18.85 74.58 -18.87 72.97 -18.89 71.36 C-18.93 67.12 -18.97 62.89 -19 58.65 C-19.05 51.86 -19.11 45.07 -19.19 38.28 C-19.21 35.9 -19.23 33.52 -19.24 31.14 C-19.25 29.69 -19.27 28.24 -19.28 26.79 C-19.29 25.52 -19.3 24.25 -19.31 22.94 C-19.13 20.2 -19.13 20.2 -20.46 19.1 C-23.26 18.82 -26.07 18.65 -28.89 18.48 C-31.46 18.1 -31.46 18.1 -33.46 16.1 C-33.69 13.13 -33.69 13.13 -33.64 9.6 C-33.63 7.85 -33.63 7.85 -33.62 6.07 C-33.46 3.1 -33.46 3.1 -32.46 1.1 C-28.54 0.96 -24.63 0.81 -20.72 0.67 C-18.76 0.6 -16.79 0.53 -14.82 0.46 C-9.88 0.28 -4.94 0.15 0 0 Z " fill="#060A08" transform="translate(659.455078125,510.8984375)"/>
<path d="M0 0 C1.05 -0.01 2.1 -0.01 3.19 -0.02 C6 0.25 6 0.25 9 2.25 C9.29 5.18 9.38 7.9 9.34 10.83 C9.34 12.16 9.34 12.16 9.34 13.52 C9.34 16.46 9.32 19.41 9.29 22.35 C9.29 24.39 9.28 26.43 9.28 28.46 C9.27 33.83 9.24 39.2 9.21 44.57 C9.18 50.05 9.16 55.52 9.15 61 C9.11 71.75 9.06 82.5 9 93.25 C6.03 94.74 3.3 94.38 0 94.38 C-1.89 94.38 -1.89 94.38 -3.81 94.38 C-7 94.25 -7 94.25 -9 93.25 C-9.07 81.42 -9.12 69.59 -9.16 57.76 C-9.17 52.27 -9.19 46.77 -9.23 41.28 C-9.26 35.98 -9.28 30.69 -9.28 25.39 C-9.29 23.36 -9.3 21.34 -9.32 19.31 C-9.34 16.49 -9.34 13.66 -9.34 10.83 C-9.35 9.99 -9.36 9.14 -9.37 8.27 C-9.36 5.95 -9.36 5.95 -9 2.25 C-5.54 -0.06 -4.08 -0.02 0 0 Z " fill="#060A08" transform="translate(393,400.75)"/>
<path d="M0 0 C1.26 -0.02 2.52 -0.03 3.81 -0.05 C4.86 0.07 5.92 0.19 7 0.31 C9.52 4.1 9.28 7.1 9.26 11.48 C9.26 12.32 9.27 13.15 9.27 14.01 C9.28 16.76 9.27 19.52 9.27 22.28 C9.27 24.19 9.27 26.11 9.27 28.02 C9.27 32.03 9.27 36.05 9.26 40.06 C9.25 45.21 9.26 50.35 9.27 55.5 C9.28 59.45 9.27 63.41 9.27 67.36 C9.27 69.26 9.27 71.16 9.27 73.05 C9.28 75.71 9.27 78.36 9.26 81.01 C9.26 81.8 9.27 82.58 9.27 83.39 C9.24 87.18 9.13 90.1 7 93.31 C4.71 93.37 2.42 93.41 0.12 93.44 C-1.15 93.46 -2.43 93.48 -3.74 93.51 C-7 93.31 -7 93.31 -9 91.31 C-9.2 88.49 -9.27 85.77 -9.26 82.95 C-9.26 82.08 -9.27 81.22 -9.27 80.33 C-9.28 77.46 -9.27 74.59 -9.27 71.72 C-9.27 69.73 -9.27 67.74 -9.27 65.76 C-9.27 61.59 -9.27 57.42 -9.26 53.25 C-9.25 47.89 -9.26 42.54 -9.27 37.19 C-9.28 33.08 -9.27 28.97 -9.27 24.87 C-9.27 22.89 -9.27 20.92 -9.27 18.95 C-9.28 16.19 -9.27 13.43 -9.26 10.68 C-9.26 9.86 -9.27 9.03 -9.27 8.19 C-9.21 0.54 -7.33 0.02 0 0 Z " fill="#060A08" transform="translate(610,511.6875)"/>
</svg>
